<mxfile host="app.diagrams.net" modified="2021-07-09T08:58:05.399Z" agent="5.0 (Windows NT 10.0; Win64; x64) AppleWebKit/537.36 (KHTML, like Gecko) Chrome/91.0.4472.124 Safari/537.36" etag="ovjCUb8OAfZ8UIX-gjHL" version="14.8.5" type="github">
  <diagram id="1F27ypavUidTExoAbJCL" name="第 1 页">
    <mxGraphModel dx="2062" dy="1160" grid="1" gridSize="10" guides="1" tooltips="1" connect="1" arrows="1" fold="1" page="1" pageScale="1" pageWidth="827" pageHeight="1169" math="0" shadow="0">
      <root>
        <mxCell id="0" />
        <mxCell id="1" parent="0" />
        <mxCell id="4daUU_iq5A8coQBe8BR_-1" value="" style="shape=table;startSize=0;container=1;collapsible=0;childLayout=tableLayout;" vertex="1" parent="1">
          <mxGeometry x="50" y="50" width="200" height="200" as="geometry" />
        </mxCell>
        <mxCell id="4daUU_iq5A8coQBe8BR_-36" value="" style="shape=partialRectangle;collapsible=0;dropTarget=0;pointerEvents=0;fillColor=none;top=0;left=0;bottom=0;right=0;points=[[0,0.5],[1,0.5]];portConstraint=eastwest;" vertex="1" parent="4daUU_iq5A8coQBe8BR_-1">
          <mxGeometry width="200" height="40" as="geometry" />
        </mxCell>
        <mxCell id="4daUU_iq5A8coQBe8BR_-37" value="" style="shape=partialRectangle;html=1;whiteSpace=wrap;connectable=0;overflow=hidden;fillColor=none;top=0;left=0;bottom=0;right=0;" vertex="1" parent="4daUU_iq5A8coQBe8BR_-36">
          <mxGeometry width="40" height="40" as="geometry" />
        </mxCell>
        <mxCell id="4daUU_iq5A8coQBe8BR_-38" value="" style="shape=partialRectangle;html=1;whiteSpace=wrap;connectable=0;overflow=hidden;fillColor=none;top=0;left=0;bottom=0;right=0;" vertex="1" parent="4daUU_iq5A8coQBe8BR_-36">
          <mxGeometry x="40" width="40" height="40" as="geometry" />
        </mxCell>
        <mxCell id="4daUU_iq5A8coQBe8BR_-39" value="" style="shape=partialRectangle;html=1;whiteSpace=wrap;connectable=0;overflow=hidden;fillColor=none;top=0;left=0;bottom=0;right=0;" vertex="1" parent="4daUU_iq5A8coQBe8BR_-36">
          <mxGeometry x="80" width="40" height="40" as="geometry" />
        </mxCell>
        <mxCell id="4daUU_iq5A8coQBe8BR_-40" value="" style="shape=partialRectangle;html=1;whiteSpace=wrap;connectable=0;overflow=hidden;fillColor=none;top=0;left=0;bottom=0;right=0;" vertex="1" parent="4daUU_iq5A8coQBe8BR_-36">
          <mxGeometry x="120" width="40" height="40" as="geometry" />
        </mxCell>
        <mxCell id="4daUU_iq5A8coQBe8BR_-41" value="" style="shape=partialRectangle;html=1;whiteSpace=wrap;connectable=0;overflow=hidden;fillColor=none;top=0;left=0;bottom=0;right=0;" vertex="1" parent="4daUU_iq5A8coQBe8BR_-36">
          <mxGeometry x="160" width="40" height="40" as="geometry" />
        </mxCell>
        <mxCell id="4daUU_iq5A8coQBe8BR_-2" value="" style="shape=partialRectangle;collapsible=0;dropTarget=0;pointerEvents=0;fillColor=none;top=0;left=0;bottom=0;right=0;points=[[0,0.5],[1,0.5]];portConstraint=eastwest;" vertex="1" parent="4daUU_iq5A8coQBe8BR_-1">
          <mxGeometry y="40" width="200" height="40" as="geometry" />
        </mxCell>
        <mxCell id="4daUU_iq5A8coQBe8BR_-3" value="" style="shape=partialRectangle;html=1;whiteSpace=wrap;connectable=0;overflow=hidden;fillColor=none;top=0;left=0;bottom=0;right=0;" vertex="1" parent="4daUU_iq5A8coQBe8BR_-2">
          <mxGeometry width="40" height="40" as="geometry" />
        </mxCell>
        <mxCell id="4daUU_iq5A8coQBe8BR_-4" value="" style="shape=partialRectangle;html=1;whiteSpace=wrap;connectable=0;overflow=hidden;fillColor=none;top=0;left=0;bottom=0;right=0;" vertex="1" parent="4daUU_iq5A8coQBe8BR_-2">
          <mxGeometry x="40" width="40" height="40" as="geometry" />
        </mxCell>
        <mxCell id="4daUU_iq5A8coQBe8BR_-5" value="" style="shape=partialRectangle;html=1;whiteSpace=wrap;connectable=0;overflow=hidden;fillColor=none;top=0;left=0;bottom=0;right=0;" vertex="1" parent="4daUU_iq5A8coQBe8BR_-2">
          <mxGeometry x="80" width="40" height="40" as="geometry" />
        </mxCell>
        <mxCell id="4daUU_iq5A8coQBe8BR_-6" value="" style="shape=partialRectangle;html=1;whiteSpace=wrap;connectable=0;overflow=hidden;fillColor=none;top=0;left=0;bottom=0;right=0;" vertex="1" parent="4daUU_iq5A8coQBe8BR_-2">
          <mxGeometry x="120" width="40" height="40" as="geometry" />
        </mxCell>
        <mxCell id="4daUU_iq5A8coQBe8BR_-7" value="" style="shape=partialRectangle;html=1;whiteSpace=wrap;connectable=0;overflow=hidden;fillColor=none;top=0;left=0;bottom=0;right=0;" vertex="1" parent="4daUU_iq5A8coQBe8BR_-2">
          <mxGeometry x="160" width="40" height="40" as="geometry" />
        </mxCell>
        <mxCell id="4daUU_iq5A8coQBe8BR_-8" value="" style="shape=partialRectangle;collapsible=0;dropTarget=0;pointerEvents=0;fillColor=none;top=0;left=0;bottom=0;right=0;points=[[0,0.5],[1,0.5]];portConstraint=eastwest;" vertex="1" parent="4daUU_iq5A8coQBe8BR_-1">
          <mxGeometry y="80" width="200" height="40" as="geometry" />
        </mxCell>
        <mxCell id="4daUU_iq5A8coQBe8BR_-9" value="" style="shape=partialRectangle;html=1;whiteSpace=wrap;connectable=0;overflow=hidden;fillColor=none;top=0;left=0;bottom=0;right=0;" vertex="1" parent="4daUU_iq5A8coQBe8BR_-8">
          <mxGeometry width="40" height="40" as="geometry" />
        </mxCell>
        <mxCell id="4daUU_iq5A8coQBe8BR_-10" value="" style="shape=partialRectangle;html=1;whiteSpace=wrap;connectable=0;overflow=hidden;fillColor=none;top=0;left=0;bottom=0;right=0;" vertex="1" parent="4daUU_iq5A8coQBe8BR_-8">
          <mxGeometry x="40" width="40" height="40" as="geometry" />
        </mxCell>
        <mxCell id="4daUU_iq5A8coQBe8BR_-11" value="" style="shape=partialRectangle;html=1;whiteSpace=wrap;connectable=0;overflow=hidden;fillColor=none;top=0;left=0;bottom=0;right=0;" vertex="1" parent="4daUU_iq5A8coQBe8BR_-8">
          <mxGeometry x="80" width="40" height="40" as="geometry" />
        </mxCell>
        <mxCell id="4daUU_iq5A8coQBe8BR_-12" value="" style="shape=partialRectangle;html=1;whiteSpace=wrap;connectable=0;overflow=hidden;fillColor=none;top=0;left=0;bottom=0;right=0;" vertex="1" parent="4daUU_iq5A8coQBe8BR_-8">
          <mxGeometry x="120" width="40" height="40" as="geometry" />
        </mxCell>
        <mxCell id="4daUU_iq5A8coQBe8BR_-13" value="" style="shape=partialRectangle;html=1;whiteSpace=wrap;connectable=0;overflow=hidden;fillColor=none;top=0;left=0;bottom=0;right=0;" vertex="1" parent="4daUU_iq5A8coQBe8BR_-8">
          <mxGeometry x="160" width="40" height="40" as="geometry" />
        </mxCell>
        <mxCell id="4daUU_iq5A8coQBe8BR_-14" value="" style="shape=partialRectangle;collapsible=0;dropTarget=0;pointerEvents=0;fillColor=none;top=0;left=0;bottom=0;right=0;points=[[0,0.5],[1,0.5]];portConstraint=eastwest;" vertex="1" parent="4daUU_iq5A8coQBe8BR_-1">
          <mxGeometry y="120" width="200" height="40" as="geometry" />
        </mxCell>
        <mxCell id="4daUU_iq5A8coQBe8BR_-15" value="" style="shape=partialRectangle;html=1;whiteSpace=wrap;connectable=0;overflow=hidden;fillColor=none;top=0;left=0;bottom=0;right=0;" vertex="1" parent="4daUU_iq5A8coQBe8BR_-14">
          <mxGeometry width="40" height="40" as="geometry" />
        </mxCell>
        <mxCell id="4daUU_iq5A8coQBe8BR_-16" value="" style="shape=partialRectangle;html=1;whiteSpace=wrap;connectable=0;overflow=hidden;fillColor=none;top=0;left=0;bottom=0;right=0;" vertex="1" parent="4daUU_iq5A8coQBe8BR_-14">
          <mxGeometry x="40" width="40" height="40" as="geometry" />
        </mxCell>
        <mxCell id="4daUU_iq5A8coQBe8BR_-17" value="" style="shape=partialRectangle;html=1;whiteSpace=wrap;connectable=0;overflow=hidden;fillColor=none;top=0;left=0;bottom=0;right=0;" vertex="1" parent="4daUU_iq5A8coQBe8BR_-14">
          <mxGeometry x="80" width="40" height="40" as="geometry" />
        </mxCell>
        <mxCell id="4daUU_iq5A8coQBe8BR_-18" value="" style="shape=partialRectangle;html=1;whiteSpace=wrap;connectable=0;overflow=hidden;fillColor=none;top=0;left=0;bottom=0;right=0;" vertex="1" parent="4daUU_iq5A8coQBe8BR_-14">
          <mxGeometry x="120" width="40" height="40" as="geometry" />
        </mxCell>
        <mxCell id="4daUU_iq5A8coQBe8BR_-19" value="" style="shape=partialRectangle;html=1;whiteSpace=wrap;connectable=0;overflow=hidden;fillColor=none;top=0;left=0;bottom=0;right=0;" vertex="1" parent="4daUU_iq5A8coQBe8BR_-14">
          <mxGeometry x="160" width="40" height="40" as="geometry" />
        </mxCell>
        <mxCell id="4daUU_iq5A8coQBe8BR_-20" value="" style="shape=partialRectangle;collapsible=0;dropTarget=0;pointerEvents=0;fillColor=none;top=0;left=0;bottom=0;right=0;points=[[0,0.5],[1,0.5]];portConstraint=eastwest;" vertex="1" parent="4daUU_iq5A8coQBe8BR_-1">
          <mxGeometry y="160" width="200" height="40" as="geometry" />
        </mxCell>
        <mxCell id="4daUU_iq5A8coQBe8BR_-21" value="" style="shape=partialRectangle;html=1;whiteSpace=wrap;connectable=0;overflow=hidden;fillColor=none;top=0;left=0;bottom=0;right=0;" vertex="1" parent="4daUU_iq5A8coQBe8BR_-20">
          <mxGeometry width="40" height="40" as="geometry" />
        </mxCell>
        <mxCell id="4daUU_iq5A8coQBe8BR_-22" value="" style="shape=partialRectangle;html=1;whiteSpace=wrap;connectable=0;overflow=hidden;fillColor=none;top=0;left=0;bottom=0;right=0;" vertex="1" parent="4daUU_iq5A8coQBe8BR_-20">
          <mxGeometry x="40" width="40" height="40" as="geometry" />
        </mxCell>
        <mxCell id="4daUU_iq5A8coQBe8BR_-23" value="" style="shape=partialRectangle;html=1;whiteSpace=wrap;connectable=0;overflow=hidden;fillColor=none;top=0;left=0;bottom=0;right=0;" vertex="1" parent="4daUU_iq5A8coQBe8BR_-20">
          <mxGeometry x="80" width="40" height="40" as="geometry" />
        </mxCell>
        <mxCell id="4daUU_iq5A8coQBe8BR_-24" value="" style="shape=partialRectangle;html=1;whiteSpace=wrap;connectable=0;overflow=hidden;fillColor=none;top=0;left=0;bottom=0;right=0;" vertex="1" parent="4daUU_iq5A8coQBe8BR_-20">
          <mxGeometry x="120" width="40" height="40" as="geometry" />
        </mxCell>
        <mxCell id="4daUU_iq5A8coQBe8BR_-25" value="" style="shape=partialRectangle;html=1;whiteSpace=wrap;connectable=0;overflow=hidden;fillColor=none;top=0;left=0;bottom=0;right=0;" vertex="1" parent="4daUU_iq5A8coQBe8BR_-20">
          <mxGeometry x="160" width="40" height="40" as="geometry" />
        </mxCell>
        <mxCell id="4daUU_iq5A8coQBe8BR_-32" value="" style="swimlane;startSize=0;strokeColor=#FF3333;strokeWidth=5;" vertex="1" parent="1">
          <mxGeometry x="50" y="50" width="97.5" height="97.5" as="geometry" />
        </mxCell>
        <mxCell id="4daUU_iq5A8coQBe8BR_-33" value="" style="swimlane;startSize=0;strokeWidth=5;strokeColor=#FF9933;" vertex="1" parent="1">
          <mxGeometry x="152.5" y="50" width="97.5" height="97.5" as="geometry" />
        </mxCell>
        <mxCell id="4daUU_iq5A8coQBe8BR_-34" value="" style="swimlane;startSize=0;strokeWidth=5;strokeColor=#99FF33;" vertex="1" parent="1">
          <mxGeometry x="50" y="152.5" width="97.5" height="97.5" as="geometry" />
        </mxCell>
        <mxCell id="4daUU_iq5A8coQBe8BR_-35" value="" style="swimlane;startSize=0;strokeWidth=5;strokeColor=#33FFFF;" vertex="1" parent="1">
          <mxGeometry x="152.5" y="152.5" width="97.5" height="97.5" as="geometry" />
        </mxCell>
        <mxCell id="4daUU_iq5A8coQBe8BR_-42" value="" style="shape=table;startSize=0;container=1;collapsible=0;childLayout=tableLayout;" vertex="1" parent="1">
          <mxGeometry x="140" y="410" width="180" height="180" as="geometry" />
        </mxCell>
        <mxCell id="4daUU_iq5A8coQBe8BR_-43" value="" style="shape=partialRectangle;collapsible=0;dropTarget=0;pointerEvents=0;fillColor=none;top=0;left=0;bottom=0;right=0;points=[[0,0.5],[1,0.5]];portConstraint=eastwest;" vertex="1" parent="4daUU_iq5A8coQBe8BR_-42">
          <mxGeometry width="180" height="30" as="geometry" />
        </mxCell>
        <mxCell id="4daUU_iq5A8coQBe8BR_-44" value="" style="shape=partialRectangle;html=1;whiteSpace=wrap;connectable=0;overflow=hidden;fillColor=none;top=0;left=0;bottom=0;right=0;" vertex="1" parent="4daUU_iq5A8coQBe8BR_-43">
          <mxGeometry width="30" height="30" as="geometry" />
        </mxCell>
        <mxCell id="4daUU_iq5A8coQBe8BR_-45" value="" style="shape=partialRectangle;html=1;whiteSpace=wrap;connectable=0;overflow=hidden;fillColor=none;top=0;left=0;bottom=0;right=0;" vertex="1" parent="4daUU_iq5A8coQBe8BR_-43">
          <mxGeometry x="30" width="30" height="30" as="geometry" />
        </mxCell>
        <mxCell id="4daUU_iq5A8coQBe8BR_-46" value="" style="shape=partialRectangle;html=1;whiteSpace=wrap;connectable=0;overflow=hidden;fillColor=none;top=0;left=0;bottom=0;right=0;" vertex="1" parent="4daUU_iq5A8coQBe8BR_-43">
          <mxGeometry x="60" width="30" height="30" as="geometry" />
        </mxCell>
        <mxCell id="4daUU_iq5A8coQBe8BR_-47" value="" style="shape=partialRectangle;html=1;whiteSpace=wrap;connectable=0;overflow=hidden;fillColor=none;top=0;left=0;bottom=0;right=0;" vertex="1" parent="4daUU_iq5A8coQBe8BR_-43">
          <mxGeometry x="90" width="30" height="30" as="geometry" />
        </mxCell>
        <mxCell id="4daUU_iq5A8coQBe8BR_-48" value="" style="shape=partialRectangle;html=1;whiteSpace=wrap;connectable=0;overflow=hidden;fillColor=none;top=0;left=0;bottom=0;right=0;" vertex="1" parent="4daUU_iq5A8coQBe8BR_-43">
          <mxGeometry x="120" width="30" height="30" as="geometry" />
        </mxCell>
        <mxCell id="4daUU_iq5A8coQBe8BR_-49" value="" style="shape=partialRectangle;html=1;whiteSpace=wrap;connectable=0;overflow=hidden;fillColor=none;top=0;left=0;bottom=0;right=0;" vertex="1" parent="4daUU_iq5A8coQBe8BR_-43">
          <mxGeometry x="150" width="30" height="30" as="geometry" />
        </mxCell>
        <mxCell id="4daUU_iq5A8coQBe8BR_-53" value="" style="shape=partialRectangle;collapsible=0;dropTarget=0;pointerEvents=0;fillColor=none;top=0;left=0;bottom=0;right=0;points=[[0,0.5],[1,0.5]];portConstraint=eastwest;" vertex="1" parent="4daUU_iq5A8coQBe8BR_-42">
          <mxGeometry y="30" width="180" height="30" as="geometry" />
        </mxCell>
        <mxCell id="4daUU_iq5A8coQBe8BR_-54" value="" style="shape=partialRectangle;html=1;whiteSpace=wrap;connectable=0;overflow=hidden;fillColor=none;top=0;left=0;bottom=0;right=0;" vertex="1" parent="4daUU_iq5A8coQBe8BR_-53">
          <mxGeometry width="30" height="30" as="geometry" />
        </mxCell>
        <mxCell id="4daUU_iq5A8coQBe8BR_-55" value="" style="shape=partialRectangle;html=1;whiteSpace=wrap;connectable=0;overflow=hidden;fillColor=none;top=0;left=0;bottom=0;right=0;" vertex="1" parent="4daUU_iq5A8coQBe8BR_-53">
          <mxGeometry x="30" width="30" height="30" as="geometry" />
        </mxCell>
        <mxCell id="4daUU_iq5A8coQBe8BR_-56" value="" style="shape=partialRectangle;html=1;whiteSpace=wrap;connectable=0;overflow=hidden;fillColor=none;top=0;left=0;bottom=0;right=0;" vertex="1" parent="4daUU_iq5A8coQBe8BR_-53">
          <mxGeometry x="60" width="30" height="30" as="geometry" />
        </mxCell>
        <mxCell id="4daUU_iq5A8coQBe8BR_-57" value="" style="shape=partialRectangle;html=1;whiteSpace=wrap;connectable=0;overflow=hidden;fillColor=none;top=0;left=0;bottom=0;right=0;" vertex="1" parent="4daUU_iq5A8coQBe8BR_-53">
          <mxGeometry x="90" width="30" height="30" as="geometry" />
        </mxCell>
        <mxCell id="4daUU_iq5A8coQBe8BR_-58" value="" style="shape=partialRectangle;html=1;whiteSpace=wrap;connectable=0;overflow=hidden;fillColor=none;top=0;left=0;bottom=0;right=0;" vertex="1" parent="4daUU_iq5A8coQBe8BR_-53">
          <mxGeometry x="120" width="30" height="30" as="geometry" />
        </mxCell>
        <mxCell id="4daUU_iq5A8coQBe8BR_-59" value="" style="shape=partialRectangle;html=1;whiteSpace=wrap;connectable=0;overflow=hidden;fillColor=none;top=0;left=0;bottom=0;right=0;" vertex="1" parent="4daUU_iq5A8coQBe8BR_-53">
          <mxGeometry x="150" width="30" height="30" as="geometry" />
        </mxCell>
        <mxCell id="4daUU_iq5A8coQBe8BR_-63" value="" style="shape=partialRectangle;collapsible=0;dropTarget=0;pointerEvents=0;fillColor=none;top=0;left=0;bottom=0;right=0;points=[[0,0.5],[1,0.5]];portConstraint=eastwest;" vertex="1" parent="4daUU_iq5A8coQBe8BR_-42">
          <mxGeometry y="60" width="180" height="30" as="geometry" />
        </mxCell>
        <mxCell id="4daUU_iq5A8coQBe8BR_-64" value="" style="shape=partialRectangle;html=1;whiteSpace=wrap;connectable=0;overflow=hidden;fillColor=none;top=0;left=0;bottom=0;right=0;" vertex="1" parent="4daUU_iq5A8coQBe8BR_-63">
          <mxGeometry width="30" height="30" as="geometry" />
        </mxCell>
        <mxCell id="4daUU_iq5A8coQBe8BR_-65" value="" style="shape=partialRectangle;html=1;whiteSpace=wrap;connectable=0;overflow=hidden;fillColor=none;top=0;left=0;bottom=0;right=0;" vertex="1" parent="4daUU_iq5A8coQBe8BR_-63">
          <mxGeometry x="30" width="30" height="30" as="geometry" />
        </mxCell>
        <mxCell id="4daUU_iq5A8coQBe8BR_-66" value="" style="shape=partialRectangle;html=1;whiteSpace=wrap;connectable=0;overflow=hidden;fillColor=none;top=0;left=0;bottom=0;right=0;" vertex="1" parent="4daUU_iq5A8coQBe8BR_-63">
          <mxGeometry x="60" width="30" height="30" as="geometry" />
        </mxCell>
        <mxCell id="4daUU_iq5A8coQBe8BR_-67" value="" style="shape=partialRectangle;html=1;whiteSpace=wrap;connectable=0;overflow=hidden;fillColor=none;top=0;left=0;bottom=0;right=0;" vertex="1" parent="4daUU_iq5A8coQBe8BR_-63">
          <mxGeometry x="90" width="30" height="30" as="geometry" />
        </mxCell>
        <mxCell id="4daUU_iq5A8coQBe8BR_-68" value="" style="shape=partialRectangle;html=1;whiteSpace=wrap;connectable=0;overflow=hidden;fillColor=none;top=0;left=0;bottom=0;right=0;" vertex="1" parent="4daUU_iq5A8coQBe8BR_-63">
          <mxGeometry x="120" width="30" height="30" as="geometry" />
        </mxCell>
        <mxCell id="4daUU_iq5A8coQBe8BR_-69" value="" style="shape=partialRectangle;html=1;whiteSpace=wrap;connectable=0;overflow=hidden;fillColor=none;top=0;left=0;bottom=0;right=0;" vertex="1" parent="4daUU_iq5A8coQBe8BR_-63">
          <mxGeometry x="150" width="30" height="30" as="geometry" />
        </mxCell>
        <mxCell id="4daUU_iq5A8coQBe8BR_-73" value="" style="shape=partialRectangle;collapsible=0;dropTarget=0;pointerEvents=0;fillColor=none;top=0;left=0;bottom=0;right=0;points=[[0,0.5],[1,0.5]];portConstraint=eastwest;" vertex="1" parent="4daUU_iq5A8coQBe8BR_-42">
          <mxGeometry y="90" width="180" height="30" as="geometry" />
        </mxCell>
        <mxCell id="4daUU_iq5A8coQBe8BR_-74" value="" style="shape=partialRectangle;html=1;whiteSpace=wrap;connectable=0;overflow=hidden;fillColor=none;top=0;left=0;bottom=0;right=0;" vertex="1" parent="4daUU_iq5A8coQBe8BR_-73">
          <mxGeometry width="30" height="30" as="geometry" />
        </mxCell>
        <mxCell id="4daUU_iq5A8coQBe8BR_-75" value="" style="shape=partialRectangle;html=1;whiteSpace=wrap;connectable=0;overflow=hidden;fillColor=none;top=0;left=0;bottom=0;right=0;" vertex="1" parent="4daUU_iq5A8coQBe8BR_-73">
          <mxGeometry x="30" width="30" height="30" as="geometry" />
        </mxCell>
        <mxCell id="4daUU_iq5A8coQBe8BR_-76" value="" style="shape=partialRectangle;html=1;whiteSpace=wrap;connectable=0;overflow=hidden;fillColor=none;top=0;left=0;bottom=0;right=0;" vertex="1" parent="4daUU_iq5A8coQBe8BR_-73">
          <mxGeometry x="60" width="30" height="30" as="geometry" />
        </mxCell>
        <mxCell id="4daUU_iq5A8coQBe8BR_-77" value="" style="shape=partialRectangle;html=1;whiteSpace=wrap;connectable=0;overflow=hidden;fillColor=none;top=0;left=0;bottom=0;right=0;" vertex="1" parent="4daUU_iq5A8coQBe8BR_-73">
          <mxGeometry x="90" width="30" height="30" as="geometry" />
        </mxCell>
        <mxCell id="4daUU_iq5A8coQBe8BR_-78" value="" style="shape=partialRectangle;html=1;whiteSpace=wrap;connectable=0;overflow=hidden;fillColor=none;top=0;left=0;bottom=0;right=0;" vertex="1" parent="4daUU_iq5A8coQBe8BR_-73">
          <mxGeometry x="120" width="30" height="30" as="geometry" />
        </mxCell>
        <mxCell id="4daUU_iq5A8coQBe8BR_-79" value="" style="shape=partialRectangle;html=1;whiteSpace=wrap;connectable=0;overflow=hidden;fillColor=none;top=0;left=0;bottom=0;right=0;" vertex="1" parent="4daUU_iq5A8coQBe8BR_-73">
          <mxGeometry x="150" width="30" height="30" as="geometry" />
        </mxCell>
        <mxCell id="4daUU_iq5A8coQBe8BR_-83" value="" style="shape=partialRectangle;collapsible=0;dropTarget=0;pointerEvents=0;fillColor=none;top=0;left=0;bottom=0;right=0;points=[[0,0.5],[1,0.5]];portConstraint=eastwest;" vertex="1" parent="4daUU_iq5A8coQBe8BR_-42">
          <mxGeometry y="120" width="180" height="30" as="geometry" />
        </mxCell>
        <mxCell id="4daUU_iq5A8coQBe8BR_-84" value="" style="shape=partialRectangle;html=1;whiteSpace=wrap;connectable=0;overflow=hidden;fillColor=none;top=0;left=0;bottom=0;right=0;" vertex="1" parent="4daUU_iq5A8coQBe8BR_-83">
          <mxGeometry width="30" height="30" as="geometry" />
        </mxCell>
        <mxCell id="4daUU_iq5A8coQBe8BR_-85" value="" style="shape=partialRectangle;html=1;whiteSpace=wrap;connectable=0;overflow=hidden;fillColor=none;top=0;left=0;bottom=0;right=0;" vertex="1" parent="4daUU_iq5A8coQBe8BR_-83">
          <mxGeometry x="30" width="30" height="30" as="geometry" />
        </mxCell>
        <mxCell id="4daUU_iq5A8coQBe8BR_-86" value="" style="shape=partialRectangle;html=1;whiteSpace=wrap;connectable=0;overflow=hidden;fillColor=none;top=0;left=0;bottom=0;right=0;" vertex="1" parent="4daUU_iq5A8coQBe8BR_-83">
          <mxGeometry x="60" width="30" height="30" as="geometry" />
        </mxCell>
        <mxCell id="4daUU_iq5A8coQBe8BR_-87" value="" style="shape=partialRectangle;html=1;whiteSpace=wrap;connectable=0;overflow=hidden;fillColor=none;top=0;left=0;bottom=0;right=0;" vertex="1" parent="4daUU_iq5A8coQBe8BR_-83">
          <mxGeometry x="90" width="30" height="30" as="geometry" />
        </mxCell>
        <mxCell id="4daUU_iq5A8coQBe8BR_-88" value="" style="shape=partialRectangle;html=1;whiteSpace=wrap;connectable=0;overflow=hidden;fillColor=none;top=0;left=0;bottom=0;right=0;" vertex="1" parent="4daUU_iq5A8coQBe8BR_-83">
          <mxGeometry x="120" width="30" height="30" as="geometry" />
        </mxCell>
        <mxCell id="4daUU_iq5A8coQBe8BR_-89" value="" style="shape=partialRectangle;html=1;whiteSpace=wrap;connectable=0;overflow=hidden;fillColor=none;top=0;left=0;bottom=0;right=0;" vertex="1" parent="4daUU_iq5A8coQBe8BR_-83">
          <mxGeometry x="150" width="30" height="30" as="geometry" />
        </mxCell>
        <mxCell id="4daUU_iq5A8coQBe8BR_-93" value="" style="shape=partialRectangle;collapsible=0;dropTarget=0;pointerEvents=0;fillColor=none;top=0;left=0;bottom=0;right=0;points=[[0,0.5],[1,0.5]];portConstraint=eastwest;" vertex="1" parent="4daUU_iq5A8coQBe8BR_-42">
          <mxGeometry y="150" width="180" height="30" as="geometry" />
        </mxCell>
        <mxCell id="4daUU_iq5A8coQBe8BR_-94" value="" style="shape=partialRectangle;html=1;whiteSpace=wrap;connectable=0;overflow=hidden;fillColor=none;top=0;left=0;bottom=0;right=0;" vertex="1" parent="4daUU_iq5A8coQBe8BR_-93">
          <mxGeometry width="30" height="30" as="geometry" />
        </mxCell>
        <mxCell id="4daUU_iq5A8coQBe8BR_-95" value="" style="shape=partialRectangle;html=1;whiteSpace=wrap;connectable=0;overflow=hidden;fillColor=none;top=0;left=0;bottom=0;right=0;" vertex="1" parent="4daUU_iq5A8coQBe8BR_-93">
          <mxGeometry x="30" width="30" height="30" as="geometry" />
        </mxCell>
        <mxCell id="4daUU_iq5A8coQBe8BR_-96" value="" style="shape=partialRectangle;html=1;whiteSpace=wrap;connectable=0;overflow=hidden;fillColor=none;top=0;left=0;bottom=0;right=0;" vertex="1" parent="4daUU_iq5A8coQBe8BR_-93">
          <mxGeometry x="60" width="30" height="30" as="geometry" />
        </mxCell>
        <mxCell id="4daUU_iq5A8coQBe8BR_-97" value="" style="shape=partialRectangle;html=1;whiteSpace=wrap;connectable=0;overflow=hidden;fillColor=none;top=0;left=0;bottom=0;right=0;" vertex="1" parent="4daUU_iq5A8coQBe8BR_-93">
          <mxGeometry x="90" width="30" height="30" as="geometry" />
        </mxCell>
        <mxCell id="4daUU_iq5A8coQBe8BR_-98" value="" style="shape=partialRectangle;html=1;whiteSpace=wrap;connectable=0;overflow=hidden;fillColor=none;top=0;left=0;bottom=0;right=0;" vertex="1" parent="4daUU_iq5A8coQBe8BR_-93">
          <mxGeometry x="120" width="30" height="30" as="geometry" />
        </mxCell>
        <mxCell id="4daUU_iq5A8coQBe8BR_-99" value="" style="shape=partialRectangle;html=1;whiteSpace=wrap;connectable=0;overflow=hidden;fillColor=none;top=0;left=0;bottom=0;right=0;" vertex="1" parent="4daUU_iq5A8coQBe8BR_-93">
          <mxGeometry x="150" width="30" height="30" as="geometry" />
        </mxCell>
        <mxCell id="4daUU_iq5A8coQBe8BR_-133" value="" style="swimlane;startSize=0;strokeColor=#33FFFF;strokeWidth=5;gradientColor=none;" vertex="1" parent="1">
          <mxGeometry x="140" y="410" width="90" height="90" as="geometry" />
        </mxCell>
        <mxCell id="4daUU_iq5A8coQBe8BR_-135" value="" style="swimlane;startSize=0;strokeColor=#FF3333;strokeWidth=5;" vertex="1" parent="1">
          <mxGeometry x="170" y="410" width="90" height="90" as="geometry" />
        </mxCell>
        <mxCell id="4daUU_iq5A8coQBe8BR_-136" value="" style="swimlane;startSize=0;strokeWidth=5;strokeColor=#FF9933;" vertex="1" parent="4daUU_iq5A8coQBe8BR_-135">
          <mxGeometry x="-30" y="30" width="90" height="90" as="geometry" />
        </mxCell>
        <mxCell id="4daUU_iq5A8coQBe8BR_-146" value="" style="shape=table;startSize=0;container=1;collapsible=0;childLayout=tableLayout;" vertex="1" parent="1">
          <mxGeometry x="140" y="710" width="90" height="90" as="geometry" />
        </mxCell>
        <mxCell id="4daUU_iq5A8coQBe8BR_-147" value="" style="shape=partialRectangle;collapsible=0;dropTarget=0;pointerEvents=0;fillColor=none;top=0;left=0;bottom=0;right=0;points=[[0,0.5],[1,0.5]];portConstraint=eastwest;" vertex="1" parent="4daUU_iq5A8coQBe8BR_-146">
          <mxGeometry width="90" height="30" as="geometry" />
        </mxCell>
        <mxCell id="4daUU_iq5A8coQBe8BR_-149" value="" style="shape=partialRectangle;html=1;whiteSpace=wrap;connectable=0;overflow=hidden;fillColor=none;top=0;left=0;bottom=0;right=0;" vertex="1" parent="4daUU_iq5A8coQBe8BR_-147">
          <mxGeometry width="30" height="30" as="geometry" />
        </mxCell>
        <mxCell id="4daUU_iq5A8coQBe8BR_-150" value="" style="shape=partialRectangle;html=1;whiteSpace=wrap;connectable=0;overflow=hidden;fillColor=none;top=0;left=0;bottom=0;right=0;" vertex="1" parent="4daUU_iq5A8coQBe8BR_-147">
          <mxGeometry x="30" width="30" height="30" as="geometry" />
        </mxCell>
        <mxCell id="4daUU_iq5A8coQBe8BR_-151" value="" style="shape=partialRectangle;html=1;whiteSpace=wrap;connectable=0;overflow=hidden;fillColor=none;top=0;left=0;bottom=0;right=0;" vertex="1" parent="4daUU_iq5A8coQBe8BR_-147">
          <mxGeometry x="60" width="30" height="30" as="geometry" />
        </mxCell>
        <mxCell id="4daUU_iq5A8coQBe8BR_-152" value="" style="shape=partialRectangle;collapsible=0;dropTarget=0;pointerEvents=0;fillColor=none;top=0;left=0;bottom=0;right=0;points=[[0,0.5],[1,0.5]];portConstraint=eastwest;" vertex="1" parent="4daUU_iq5A8coQBe8BR_-146">
          <mxGeometry y="30" width="90" height="30" as="geometry" />
        </mxCell>
        <mxCell id="4daUU_iq5A8coQBe8BR_-154" value="" style="shape=partialRectangle;html=1;whiteSpace=wrap;connectable=0;overflow=hidden;fillColor=none;top=0;left=0;bottom=0;right=0;" vertex="1" parent="4daUU_iq5A8coQBe8BR_-152">
          <mxGeometry width="30" height="30" as="geometry" />
        </mxCell>
        <mxCell id="4daUU_iq5A8coQBe8BR_-155" value="" style="shape=partialRectangle;html=1;whiteSpace=wrap;connectable=0;overflow=hidden;fillColor=none;top=0;left=0;bottom=0;right=0;" vertex="1" parent="4daUU_iq5A8coQBe8BR_-152">
          <mxGeometry x="30" width="30" height="30" as="geometry" />
        </mxCell>
        <mxCell id="4daUU_iq5A8coQBe8BR_-156" value="" style="shape=partialRectangle;html=1;whiteSpace=wrap;connectable=0;overflow=hidden;fillColor=none;top=0;left=0;bottom=0;right=0;" vertex="1" parent="4daUU_iq5A8coQBe8BR_-152">
          <mxGeometry x="60" width="30" height="30" as="geometry" />
        </mxCell>
        <mxCell id="4daUU_iq5A8coQBe8BR_-157" value="" style="shape=partialRectangle;collapsible=0;dropTarget=0;pointerEvents=0;fillColor=none;top=0;left=0;bottom=0;right=0;points=[[0,0.5],[1,0.5]];portConstraint=eastwest;" vertex="1" parent="4daUU_iq5A8coQBe8BR_-146">
          <mxGeometry y="60" width="90" height="30" as="geometry" />
        </mxCell>
        <mxCell id="4daUU_iq5A8coQBe8BR_-159" value="" style="shape=partialRectangle;html=1;whiteSpace=wrap;connectable=0;overflow=hidden;fillColor=none;top=0;left=0;bottom=0;right=0;" vertex="1" parent="4daUU_iq5A8coQBe8BR_-157">
          <mxGeometry width="30" height="30" as="geometry" />
        </mxCell>
        <mxCell id="4daUU_iq5A8coQBe8BR_-160" value="" style="shape=partialRectangle;html=1;whiteSpace=wrap;connectable=0;overflow=hidden;fillColor=none;top=0;left=0;bottom=0;right=0;" vertex="1" parent="4daUU_iq5A8coQBe8BR_-157">
          <mxGeometry x="30" width="30" height="30" as="geometry" />
        </mxCell>
        <mxCell id="4daUU_iq5A8coQBe8BR_-161" value="" style="shape=partialRectangle;html=1;whiteSpace=wrap;connectable=0;overflow=hidden;fillColor=none;top=0;left=0;bottom=0;right=0;" vertex="1" parent="4daUU_iq5A8coQBe8BR_-157">
          <mxGeometry x="60" width="30" height="30" as="geometry" />
        </mxCell>
        <mxCell id="4daUU_iq5A8coQBe8BR_-169" value="" style="swimlane;startSize=0;strokeColor=#FF3333;strokeWidth=3;dashed=1;dashPattern=1 1;" vertex="1" parent="1">
          <mxGeometry x="200" y="770" width="60" height="60" as="geometry" />
        </mxCell>
        <mxCell id="4daUU_iq5A8coQBe8BR_-171" value="" style="shape=table;startSize=0;container=1;collapsible=0;childLayout=tableLayout;dashed=1;strokeColor=#FF6666;strokeWidth=3;" vertex="1" parent="1">
          <mxGeometry x="200" y="770" width="60" height="60" as="geometry" />
        </mxCell>
        <mxCell id="4daUU_iq5A8coQBe8BR_-172" value="" style="shape=partialRectangle;collapsible=0;dropTarget=0;pointerEvents=0;fillColor=none;top=0;left=0;bottom=0;right=0;points=[[0,0.5],[1,0.5]];portConstraint=eastwest;" vertex="1" parent="4daUU_iq5A8coQBe8BR_-171">
          <mxGeometry width="60" height="30" as="geometry" />
        </mxCell>
        <mxCell id="4daUU_iq5A8coQBe8BR_-173" value="" style="shape=partialRectangle;html=1;whiteSpace=wrap;connectable=0;overflow=hidden;top=0;left=0;bottom=0;right=0;strokeColor=#b85450;fillColor=#FF9933;" vertex="1" parent="4daUU_iq5A8coQBe8BR_-172">
          <mxGeometry width="30" height="30" as="geometry" />
        </mxCell>
        <mxCell id="4daUU_iq5A8coQBe8BR_-174" value="" style="shape=partialRectangle;html=1;whiteSpace=wrap;connectable=0;overflow=hidden;fillColor=none;top=0;left=0;bottom=0;right=0;" vertex="1" parent="4daUU_iq5A8coQBe8BR_-172">
          <mxGeometry x="30" width="30" height="30" as="geometry" />
        </mxCell>
        <mxCell id="4daUU_iq5A8coQBe8BR_-175" value="" style="shape=partialRectangle;collapsible=0;dropTarget=0;pointerEvents=0;fillColor=none;top=0;left=0;bottom=0;right=0;points=[[0,0.5],[1,0.5]];portConstraint=eastwest;" vertex="1" parent="4daUU_iq5A8coQBe8BR_-171">
          <mxGeometry y="30" width="60" height="30" as="geometry" />
        </mxCell>
        <mxCell id="4daUU_iq5A8coQBe8BR_-176" value="" style="shape=partialRectangle;html=1;whiteSpace=wrap;connectable=0;overflow=hidden;fillColor=none;top=0;left=0;bottom=0;right=0;" vertex="1" parent="4daUU_iq5A8coQBe8BR_-175">
          <mxGeometry width="30" height="30" as="geometry" />
        </mxCell>
        <mxCell id="4daUU_iq5A8coQBe8BR_-177" value="" style="shape=partialRectangle;html=1;whiteSpace=wrap;connectable=0;overflow=hidden;fillColor=none;top=0;left=0;bottom=0;right=0;" vertex="1" parent="4daUU_iq5A8coQBe8BR_-175">
          <mxGeometry x="30" width="30" height="30" as="geometry" />
        </mxCell>
        <mxCell id="4daUU_iq5A8coQBe8BR_-184" value="" style="shape=table;startSize=0;container=1;collapsible=0;childLayout=tableLayout;dashed=1;strokeColor=#FF6666;strokeWidth=3;" vertex="1" parent="1">
          <mxGeometry x="110" y="680" width="60" height="60" as="geometry" />
        </mxCell>
        <mxCell id="4daUU_iq5A8coQBe8BR_-185" value="" style="shape=partialRectangle;collapsible=0;dropTarget=0;pointerEvents=0;fillColor=none;top=0;left=0;bottom=0;right=0;points=[[0,0.5],[1,0.5]];portConstraint=eastwest;" vertex="1" parent="4daUU_iq5A8coQBe8BR_-184">
          <mxGeometry width="60" height="30" as="geometry" />
        </mxCell>
        <mxCell id="4daUU_iq5A8coQBe8BR_-186" value="" style="shape=partialRectangle;html=1;whiteSpace=wrap;connectable=0;overflow=hidden;top=0;left=0;bottom=0;right=0;strokeColor=#b85450;fillColor=#FF9933;" vertex="1" parent="4daUU_iq5A8coQBe8BR_-185">
          <mxGeometry width="30" height="30" as="geometry" />
        </mxCell>
        <mxCell id="4daUU_iq5A8coQBe8BR_-187" value="" style="shape=partialRectangle;html=1;whiteSpace=wrap;connectable=0;overflow=hidden;fillColor=none;top=0;left=0;bottom=0;right=0;" vertex="1" parent="4daUU_iq5A8coQBe8BR_-185">
          <mxGeometry x="30" width="30" height="30" as="geometry" />
        </mxCell>
        <mxCell id="4daUU_iq5A8coQBe8BR_-188" value="" style="shape=partialRectangle;collapsible=0;dropTarget=0;pointerEvents=0;fillColor=none;top=0;left=0;bottom=0;right=0;points=[[0,0.5],[1,0.5]];portConstraint=eastwest;" vertex="1" parent="4daUU_iq5A8coQBe8BR_-184">
          <mxGeometry y="30" width="60" height="30" as="geometry" />
        </mxCell>
        <mxCell id="4daUU_iq5A8coQBe8BR_-189" value="" style="shape=partialRectangle;html=1;whiteSpace=wrap;connectable=0;overflow=hidden;fillColor=none;top=0;left=0;bottom=0;right=0;" vertex="1" parent="4daUU_iq5A8coQBe8BR_-188">
          <mxGeometry width="30" height="30" as="geometry" />
        </mxCell>
        <mxCell id="4daUU_iq5A8coQBe8BR_-190" value="" style="shape=partialRectangle;html=1;whiteSpace=wrap;connectable=0;overflow=hidden;fillColor=none;top=0;left=0;bottom=0;right=0;" vertex="1" parent="4daUU_iq5A8coQBe8BR_-188">
          <mxGeometry x="30" width="30" height="30" as="geometry" />
        </mxCell>
      </root>
    </mxGraphModel>
  </diagram>
</mxfile>
